<svg width="1440" height="339" viewBox="0 0 1440 339" fill="none" xmlns="http://www.w3.org/2000/svg">
<rect width="1440" height="339" fill="#FAFAFA"/>
<rect width="1440" height="77" transform="translate(0 262)" fill="#252B42"/>
<g clip-path="url(#clip0_964_17548)">
<g clip-path="url(#clip1_964_17548)">
<g clip-path="url(#clip2_964_17548)">
<path d="M243.255 102.425L249.419 102.553C247.295 101.818 245.235 100.924 243.255 99.8709V102.425ZM252.541 101.579V102.425L249.419 102.553C255.293 104.548 260.669 104.819 264.66 103.702C261.457 103.734 257.289 103.287 252.541 101.579ZM318.349 83.1901C320.908 83.1901 323 81.131 323 78.577C323 76.023 320.924 74.6662 318.349 74.6662C315.79 74.6662 313.698 76.039 313.698 78.577C313.698 81.115 315.774 83.1901 318.349 83.1901ZM313.682 102.425H323V84.7864H313.682V102.425ZM301.82 102.425H311.139V71.2502L301.82 75.608V102.425ZM296.831 83.3657C293.902 80.4606 288.72 80.6362 288.72 80.6362C288.72 80.6362 283.522 80.4606 280.609 83.3657C277.68 86.2709 277.905 88.777 277.905 91.762C277.905 94.747 277.68 97.2371 280.609 100.142C283.538 103.047 288.72 102.872 288.72 102.872C288.72 102.872 293.918 103.047 296.831 100.142C299.76 97.2371 299.535 94.747 299.535 91.762C299.519 88.761 299.744 86.2549 296.831 83.3657ZM290.426 94.8427C290.426 95.4174 290.136 96.838 288.704 96.838C287.272 96.838 286.982 95.4174 286.982 94.8427V88.3939C286.982 87.0052 288.157 86.654 288.704 86.654C289.251 86.654 290.426 86.9892 290.426 88.3939V94.8427ZM273.335 83.3657C270.406 80.4606 265.223 80.6362 265.223 80.6362C265.223 80.6362 260.041 80.4606 257.112 83.3657C256.806 83.669 256.517 83.9883 256.259 84.3235C250.111 79.5986 244.591 76.9009 239.827 74.5704V71.2662L236.206 72.9582C227.451 69.4305 221.883 70.0531 220.547 72.9742C220.547 72.9742 216.54 78.2099 230.493 90.6606V102.425H239.811V97.8596C238.765 97.1892 237.719 96.4709 236.689 95.6887C234.307 93.9009 232.279 92.2409 230.509 90.6765V85.7282C232.617 88.0747 235.418 90.7404 239.103 93.7573L239.827 94.3319V89.5751C239.827 88.4737 240.101 86.67 241.566 86.67C243.03 86.67 243.271 87.7714 243.271 89.0643V96.838C246.168 98.7855 249.274 100.366 252.558 101.563V86.5742C252.558 83.5892 250.401 80.6042 246.023 80.6042C243.481 80.5883 241.115 81.9132 239.827 84.1V75.4324C246.571 78.7685 253.33 82.8549 255.905 84.7385C254.263 87.069 254.408 89.2239 254.408 91.7141C254.408 94.6991 254.183 97.1892 257.112 100.094C260.041 103 265.223 102.824 265.223 102.824C265.223 102.824 270.422 103 273.335 100.094C276.264 97.1892 276.022 94.6991 276.022 91.7141C276.022 88.761 276.264 86.2549 273.335 83.3657ZM230.493 75.608V85.7122C222.655 77.0127 224.233 73.5808 224.828 73.0859C227.001 71.2662 230.863 71.8089 235.192 73.4211L230.493 75.608ZM266.945 94.8427C266.945 95.4174 266.656 96.838 265.223 96.838C263.791 96.838 263.501 95.4174 263.501 94.8427V88.3939C263.501 87.0052 264.676 86.654 265.223 86.654C265.771 86.654 266.945 86.9892 266.945 88.3939V94.8427Z" fill="#737373"/>
</g>
</g>
<g clip-path="url(#clip3_964_17548)">
<path d="M409.5 58.9952H422.112V93.0099C422.112 98.4046 424.544 101.615 426.521 102.952C424.463 104.761 418.221 106.358 413.52 102.496C410.764 100.214 409.5 96.4162 409.5 92.8795V58.9952ZM488.269 87.2729V83.6872H492.127V71.1701H487.896C486.259 63.624 479.596 58.0173 471.637 58.0173C462.461 58.0173 454.988 65.5146 454.988 74.7557V103.962C457.582 104.337 460.727 103.913 463.369 101.681C466.141 99.3988 467.389 95.6176 467.389 92.0646V90.9726H473.679V78.4555H467.389V74.6579C467.389 69.0187 475.851 69.0187 475.851 74.6579V87.224C475.851 96.4488 483.308 103.962 492.5 103.962V91.4941C490.149 91.4941 488.269 89.5872 488.269 87.2729ZM440.56 71.1375V89.5546C440.56 92.0646 436.702 92.0646 436.702 89.5546V71.1375H424.252V92.7654C424.252 96.6444 425.549 101.567 431.547 103.18C437.545 104.777 440.982 101.452 440.982 101.452C440.641 103.636 438.631 105.25 435.324 105.576C432.811 105.837 429.618 104.989 428.029 104.305V115.762C432.098 116.985 436.378 117.36 440.609 116.528C448.244 115.045 453.059 108.64 453.059 100.1V71.056H440.56V71.1375Z" fill="#737373"/>
</g>
<path d="M681 50.1458C668.122 58.8283 666.752 65.1296 665.636 67.0572C664.568 69.0334 663.772 76.825 661.923 80.5993C660.058 84.4222 653.285 87.4352 651.388 88.6987C649.523 89.9622 646.878 94.8704 644.71 99.0982C627.482 98.3855 618.031 105.383 603.4 114.26C608.086 112.689 610.301 111.555 610.301 111.555C625.314 105.724 632.502 100.491 655.102 103.585C655.277 103.585 655.404 103.682 655.548 103.715C656.169 104.071 656.392 104.833 656.042 105.464L647.452 120.983C647.053 121.744 646.208 122.149 645.364 121.971C625.155 118.116 609.202 124.773 594.539 124.984C582.841 125.162 579 119.557 579 119.298C579 119.12 579.096 119.023 579.271 119.023C579.271 119.023 585.375 119.023 595.703 116.544C607.432 93.8175 617.887 85.8639 629.267 85.8639C629.267 85.8639 640.694 85.8639 643.706 95.8909C647.34 89.46 648.217 87.9211 648.217 87.9211C649.061 86.3985 653.795 75.4157 661.987 65.0162C670.194 54.649 676.394 52.0734 681 50.1458V50.1458Z" fill="#737373"/>
<g clip-path="url(#clip4_964_17548)">
<g clip-path="url(#clip5_964_17548)">
<path d="M786.555 69.7932L779.587 71.2568L779.554 93.9114C779.554 98.0955 782.741 100.8 786.974 100.8C789.323 100.8 791.045 100.37 791.995 99.8614V94.4841C791.078 94.85 786.571 96.1545 786.571 91.9864V81.9318H791.995V75.9182H786.571L786.555 69.7932ZM800.895 78.0023L800.46 75.9182H794.28V100.291H801.41V83.8886C803.1 81.6932 805.948 82.1227 806.866 82.4091V75.9182C805.9 75.5841 802.568 74.9636 800.895 78.0023ZM815.749 66.5L808.571 68.0114V73.7705L815.749 72.2591V66.5ZM767.227 83.0932C767.227 81.9955 768.16 81.5659 769.657 81.55C771.829 81.55 774.598 82.2023 776.77 83.3636V76.7136C774.404 75.7909 772.039 75.425 769.673 75.425C763.879 75.425 760.017 78.4159 760.017 83.4114C760.017 91.2386 770.88 89.9659 770.88 93.3386C770.88 94.6432 769.737 95.0727 768.144 95.0727C765.778 95.0727 762.72 94.1023 760.322 92.8136V99.1773C762.978 100.307 765.666 100.784 768.128 100.784C774.066 100.784 778.154 98.2705 778.154 93.1795C778.154 84.7636 767.227 86.275 767.227 83.0932V83.0932ZM863.001 88.3909C863.001 81.1523 859.46 75.4409 852.668 75.4409C845.877 75.4409 841.741 81.1523 841.741 88.3432C841.741 96.8545 846.617 100.784 853.57 100.784C856.981 100.784 859.54 100.02 861.488 98.9545V93.6409C859.54 94.6114 857.303 95.2 854.471 95.2C851.687 95.2 849.24 94.2295 848.918 90.9205H862.904C862.936 90.5545 863.001 89.075 863.001 88.3909V88.3909ZM848.854 85.7182C848.854 82.5364 850.834 81.2 852.62 81.2C854.374 81.2 856.241 82.5364 856.241 85.7182H848.854ZM830.684 75.4409C827.884 75.4409 826.081 76.7455 825.084 77.6523L824.713 75.9023H818.421V108.484L825.566 106.989L825.583 99.0023C826.613 99.75 828.141 100.784 830.636 100.784C835.754 100.784 840.421 97.0932 840.421 88.1205C840.437 79.9114 835.706 75.4409 830.684 75.4409V75.4409ZM828.978 94.9295C827.305 94.9295 826.307 94.325 825.615 93.5932L825.566 83.0932C826.307 82.2818 827.337 81.6932 828.978 81.6932C831.586 81.6932 833.388 84.5886 833.388 88.2795C833.404 92.0818 831.634 94.9295 828.978 94.9295ZM808.588 100.291H815.765V75.9182H808.588V100.291Z" fill="#737373"/>
</g>
</g>
<g clip-path="url(#clip6_964_17548)">
<g clip-path="url(#clip7_964_17548)">
<path d="M969.887 78.9887C969.77 82.6268 971.604 84.2378 971.649 85.261C971.628 85.4692 971.556 85.6693 971.441 85.8445C971.325 86.0197 971.169 86.165 970.985 86.2681L968.912 87.7072C968.643 87.8938 968.327 88.0007 968 88.0156C967.93 88.0124 966.673 88.3096 964.682 83.9021C963.467 85.4055 961.922 86.6133 960.164 87.4332C958.406 88.2531 956.482 88.6633 954.539 88.6324C951.902 88.7754 944.755 87.1483 945.123 79.6039C944.865 73.4553 950.64 69.6357 956.613 69.9585C957.763 69.9618 960.112 70.018 964.225 70.9656V68.4567C964.661 64.2067 961.844 60.9091 956.966 61.4038C956.577 61.4054 953.823 61.3235 949.54 63.0277C948.348 63.5706 948.196 63.4807 947.799 63.4807C946.599 63.4807 947.093 60.0305 947.323 59.5936C948.167 58.5656 953.132 56.6462 958.005 56.6735C961.263 56.3878 964.503 57.3848 967.026 59.4491C968.051 60.5864 968.834 61.918 969.326 63.3635C969.818 64.809 970.009 66.3383 969.888 67.8592L969.887 78.9887ZM955.887 84.1912C961.141 84.1157 963.365 80.9836 963.872 79.2971C964.27 77.6828 964.204 76.6613 964.204 74.8961C962.638 74.5234 960.383 74.117 957.796 74.1138C955.341 73.9307 950.859 75.0181 951.034 79.2955C950.833 81.9923 952.835 84.339 955.887 84.1912ZM983.575 87.8936C982.302 88.0092 981.709 87.1129 981.521 86.2279L973.454 59.7815C973.297 59.335 973.193 58.874 973.143 58.4034C973.113 58.2094 973.162 58.0116 973.279 57.8535C973.397 57.6953 973.572 57.5898 973.768 57.5601C973.807 57.5537 973.423 57.5601 977.372 57.5601C978.795 57.4188 979.258 58.5287 979.406 59.2258L985.192 81.8462L990.564 59.2258C990.649 58.7086 991.04 57.4477 992.637 57.581H995.417C995.768 57.5521 997.217 57.5007 997.471 59.2467L1002.88 82.1562L1008.86 59.2467C1008.94 58.8965 1009.3 57.4204 1010.91 57.581H1014.11C1014.24 57.5601 1015.1 57.4509 1014.96 58.9592C1014.89 59.2563 1015.51 57.2469 1006.41 86.2488C1006.23 87.1338 1005.63 88.0301 1004.36 87.9144H1001.33C999.558 88.0992 999.303 86.3628 999.276 86.1878L993.904 64.1617L988.594 86.1653C988.568 86.3404 988.314 88.0767 986.54 87.892H983.575V87.8936ZM1027.88 88.7979C1026.92 88.7995 1022.38 88.7497 1018.59 86.8238C1018.21 86.665 1017.88 86.3984 1017.66 86.0579C1017.43 85.7173 1017.32 85.3181 1017.32 84.9108V83.1841C1017.32 81.8269 1018.32 82.0758 1018.75 82.2381C1020.38 82.8902 1021.42 83.3849 1023.42 83.78C1029.35 84.9895 1031.97 83.4106 1032.61 83.0605C1034.74 81.806 1034.9 78.9357 1033.46 77.4467C1031.76 76.0349 1030.95 75.9819 1024.85 74.0737C1024.1 73.8665 1017.77 71.8876 1017.76 65.6635C1017.66 61.1276 1021.81 56.6398 1029.02 56.6767C1031.07 56.6751 1036.54 57.3401 1038.02 59.1856C1038.24 59.5213 1038.35 59.9165 1038.33 60.3164V61.9403C1038.33 62.6535 1038.07 63.01 1037.54 63.01C1036.29 62.8719 1034.08 61.2159 1029.58 61.2834C1028.46 61.2255 1023.12 61.4295 1023.36 65.2941C1023.29 68.3395 1027.67 69.4815 1028.17 69.6132C1034.07 71.3752 1036.05 71.6676 1038.39 74.3644C1041.17 77.9382 1039.67 82.1224 1039.1 83.2693C1036.01 89.291 1028.01 88.8011 1027.88 88.7979ZM1034.39 105.641C1023.05 113.948 1006.58 118.37 992.516 118.37C973.543 118.494 955.21 111.577 941.12 98.9781C940.062 98.032 940.995 96.7358 942.281 97.457C957.911 106.322 975.608 110.98 993.614 110.968C1007.06 110.897 1020.36 108.192 1032.75 103.01C1034.66 102.207 1036.28 104.263 1034.39 105.641ZM1039.12 100.294C1037.67 98.4432 1029.52 99.4294 1025.87 99.8615C1024.77 99.9852 1024.58 99.0391 1025.58 98.3404C1032.07 93.8157 1042.73 95.1119 1043.95 96.633C1045.17 98.1541 1043.62 108.745 1037.54 113.805C1036.61 114.587 1035.72 114.175 1036.13 113.147C1037.5 109.733 1040.57 102.146 1039.12 100.294Z" fill="#737373"/>
</g>
</g>
<g clip-path="url(#clip8_964_17548)">
<g clip-path="url(#clip9_964_17548)">
<path d="M1202.93 79.1614C1200.53 79.1614 1198.42 80.1556 1196.87 81.7111C1191.17 77.7503 1183.49 75.2006 1174.98 74.928L1179.41 54.9156L1193.49 58.0906C1193.49 61.5543 1196.3 64.3766 1199.75 64.3766C1203.26 64.3766 1206.09 61.4741 1206.09 58.0104C1206.09 54.5467 1203.28 51.6443 1199.75 51.6443C1197.29 51.6443 1195.17 53.1356 1194.11 55.1721L1178.56 51.7084C1177.78 51.5 1177.01 52.0612 1176.8 52.847L1171.95 74.912C1163.5 75.2648 1155.9 77.8144 1150.19 81.7752C1148.64 80.1556 1146.45 79.1614 1144.06 79.1614C1135.18 79.1614 1132.27 91.124 1140.4 95.2131C1140.11 96.4799 1139.99 97.8269 1139.99 99.1739C1139.99 112.612 1155.06 123.5 1173.56 123.5C1192.15 123.5 1207.22 112.612 1207.22 99.1739C1207.22 97.8269 1207.08 96.4158 1206.73 95.149C1214.69 91.0438 1211.76 79.1614 1202.93 79.1614ZM1153.29 96.063C1153.29 92.5351 1156.1 89.6968 1159.63 89.6968C1163.07 89.6968 1165.88 92.5191 1165.88 96.063C1165.88 99.5267 1163.07 102.349 1159.63 102.349C1156.11 102.365 1153.29 99.5267 1153.29 96.063ZM1187.5 111.056C1181.69 116.893 1165.29 116.893 1159.48 111.056C1158.84 110.495 1158.84 109.501 1159.48 108.859C1160.04 108.298 1161.03 108.298 1161.59 108.859C1166.03 113.43 1180.75 113.51 1185.38 108.859C1185.94 108.298 1186.93 108.298 1187.49 108.859C1188.14 109.501 1188.14 110.495 1187.5 111.056ZM1187.37 102.365C1183.93 102.365 1181.12 99.5427 1181.12 96.079C1181.12 92.5512 1183.93 89.7129 1187.37 89.7129C1190.89 89.7129 1193.71 92.5351 1193.71 96.079C1193.7 99.5267 1190.89 102.365 1187.37 102.365Z" fill="#737373"/>
</g>
</g>
</g>
<rect x="227" y="195" width="986" height="124" rx="2" fill="#17213C"/>
<path d="M284.512 250.288C283.184 250.288 281.896 250.112 280.648 249.76C279.416 249.392 278.424 248.92 277.672 248.344L278.992 245.416C279.712 245.944 280.568 246.368 281.56 246.688C282.552 247.008 283.544 247.168 284.536 247.168C285.64 247.168 286.456 247.008 286.984 246.688C287.512 246.352 287.776 245.912 287.776 245.368C287.776 244.968 287.616 244.64 287.296 244.384C286.992 244.112 286.592 243.896 286.096 243.736C285.616 243.576 284.96 243.4 284.128 243.208C282.848 242.904 281.8 242.6 280.984 242.296C280.168 241.992 279.464 241.504 278.872 240.832C278.296 240.16 278.008 239.264 278.008 238.144C278.008 237.168 278.272 236.288 278.8 235.504C279.328 234.704 280.12 234.072 281.176 233.608C282.248 233.144 283.552 232.912 285.088 232.912C286.16 232.912 287.208 233.04 288.232 233.296C289.256 233.552 290.152 233.92 290.92 234.4L289.72 237.352C288.168 236.472 286.616 236.032 285.064 236.032C283.976 236.032 283.168 236.208 282.64 236.56C282.128 236.912 281.872 237.376 281.872 237.952C281.872 238.528 282.168 238.96 282.76 239.248C283.368 239.52 284.288 239.792 285.52 240.064C286.8 240.368 287.848 240.672 288.664 240.976C289.48 241.28 290.176 241.76 290.752 242.416C291.344 243.072 291.64 243.96 291.64 245.08C291.64 246.04 291.368 246.92 290.824 247.72C290.296 248.504 289.496 249.128 288.424 249.592C287.352 250.056 286.048 250.288 284.512 250.288ZM307.141 237.088V250H303.589V248.464C303.093 249.024 302.501 249.456 301.813 249.76C301.125 250.048 300.381 250.192 299.581 250.192C297.885 250.192 296.541 249.704 295.549 248.728C294.557 247.752 294.061 246.304 294.061 244.384V237.088H297.805V243.832C297.805 245.912 298.677 246.952 300.421 246.952C301.317 246.952 302.037 246.664 302.581 246.088C303.125 245.496 303.397 244.624 303.397 243.472V237.088H307.141ZM318.341 236.896C319.541 236.896 320.629 237.176 321.605 237.736C322.597 238.28 323.373 239.056 323.933 240.064C324.493 241.056 324.773 242.216 324.773 243.544C324.773 244.872 324.493 246.04 323.933 247.048C323.373 248.04 322.597 248.816 321.605 249.376C320.629 249.92 319.541 250.192 318.341 250.192C316.565 250.192 315.213 249.632 314.285 248.512V250H310.709V232.192H314.453V238.456C315.397 237.416 316.693 236.896 318.341 236.896ZM317.693 247.12C318.653 247.12 319.437 246.8 320.045 246.16C320.669 245.504 320.981 244.632 320.981 243.544C320.981 242.456 320.669 241.592 320.045 240.952C319.437 240.296 318.653 239.968 317.693 239.968C316.733 239.968 315.941 240.296 315.317 240.952C314.709 241.592 314.405 242.456 314.405 243.544C314.405 244.632 314.709 245.504 315.317 246.16C315.941 246.8 316.733 247.12 317.693 247.12ZM331.724 250.192C330.652 250.192 329.604 250.064 328.58 249.808C327.556 249.536 326.74 249.2 326.132 248.8L327.38 246.112C327.956 246.48 328.652 246.784 329.468 247.024C330.284 247.248 331.084 247.36 331.868 247.36C333.452 247.36 334.244 246.968 334.244 246.184C334.244 245.816 334.028 245.552 333.596 245.392C333.164 245.232 332.5 245.096 331.604 244.984C330.548 244.824 329.676 244.64 328.988 244.432C328.3 244.224 327.7 243.856 327.188 243.328C326.692 242.8 326.444 242.048 326.444 241.072C326.444 240.256 326.676 239.536 327.14 238.912C327.62 238.272 328.308 237.776 329.204 237.424C330.116 237.072 331.188 236.896 332.42 236.896C333.332 236.896 334.236 237 335.132 237.208C336.044 237.4 336.796 237.672 337.388 238.024L336.14 240.688C335.004 240.048 333.764 239.728 332.42 239.728C331.62 239.728 331.02 239.84 330.62 240.064C330.22 240.288 330.02 240.576 330.02 240.928C330.02 241.328 330.236 241.608 330.668 241.768C331.1 241.928 331.788 242.08 332.732 242.224C333.788 242.4 334.652 242.592 335.324 242.8C335.996 242.992 336.58 243.352 337.076 243.88C337.572 244.408 337.82 245.144 337.82 246.088C337.82 246.888 337.58 247.6 337.1 248.224C336.62 248.848 335.916 249.336 334.988 249.688C334.076 250.024 332.988 250.192 331.724 250.192ZM346.47 250.192C345.094 250.192 343.854 249.912 342.75 249.352C341.662 248.776 340.806 247.984 340.182 246.976C339.574 245.968 339.27 244.824 339.27 243.544C339.27 242.264 339.574 241.12 340.182 240.112C340.806 239.104 341.662 238.32 342.75 237.76C343.854 237.184 345.094 236.896 346.47 236.896C347.83 236.896 349.014 237.184 350.022 237.76C351.046 238.32 351.79 239.128 352.254 240.184L349.35 241.744C348.678 240.56 347.71 239.968 346.446 239.968C345.47 239.968 344.662 240.288 344.022 240.928C343.382 241.568 343.062 242.44 343.062 243.544C343.062 244.648 343.382 245.52 344.022 246.16C344.662 246.8 345.47 247.12 346.446 247.12C347.726 247.12 348.694 246.528 349.35 245.344L352.254 246.928C351.79 247.952 351.046 248.752 350.022 249.328C349.014 249.904 347.83 250.192 346.47 250.192ZM358.085 238.792C358.533 238.168 359.133 237.696 359.885 237.376C360.653 237.056 361.533 236.896 362.525 236.896V240.352C362.109 240.32 361.829 240.304 361.685 240.304C360.613 240.304 359.773 240.608 359.165 241.216C358.557 241.808 358.253 242.704 358.253 243.904V250H354.509V237.088H358.085V238.792ZM364.851 237.088H368.595V250H364.851V237.088ZM366.723 235.288C366.035 235.288 365.475 235.088 365.043 234.688C364.611 234.288 364.395 233.792 364.395 233.2C364.395 232.608 364.611 232.112 365.043 231.712C365.475 231.312 366.035 231.112 366.723 231.112C367.411 231.112 367.971 231.304 368.403 231.688C368.835 232.072 369.051 232.552 369.051 233.128C369.051 233.752 368.835 234.272 368.403 234.688C367.971 235.088 367.411 235.288 366.723 235.288ZM379.802 236.896C381.002 236.896 382.09 237.176 383.066 237.736C384.058 238.28 384.834 239.056 385.394 240.064C385.954 241.056 386.234 242.216 386.234 243.544C386.234 244.872 385.954 246.04 385.394 247.048C384.834 248.04 384.058 248.816 383.066 249.376C382.09 249.92 381.002 250.192 379.802 250.192C378.026 250.192 376.674 249.632 375.746 248.512V250H372.17V232.192H375.914V238.456C376.858 237.416 378.154 236.896 379.802 236.896ZM379.154 247.12C380.114 247.12 380.898 246.8 381.506 246.16C382.13 245.504 382.442 244.632 382.442 243.544C382.442 242.456 382.13 241.592 381.506 240.952C380.898 240.296 380.114 239.968 379.154 239.968C378.194 239.968 377.402 240.296 376.778 240.952C376.17 241.592 375.866 242.456 375.866 243.544C375.866 244.632 376.17 245.504 376.778 246.16C377.402 246.8 378.194 247.12 379.154 247.12ZM401.489 243.592C401.489 243.64 401.465 243.976 401.417 244.6H391.649C391.825 245.4 392.241 246.032 392.897 246.496C393.553 246.96 394.369 247.192 395.345 247.192C396.017 247.192 396.609 247.096 397.121 246.904C397.649 246.696 398.137 246.376 398.585 245.944L400.577 248.104C399.361 249.496 397.585 250.192 395.249 250.192C393.793 250.192 392.505 249.912 391.385 249.352C390.265 248.776 389.401 247.984 388.793 246.976C388.185 245.968 387.881 244.824 387.881 243.544C387.881 242.28 388.177 241.144 388.769 240.136C389.377 239.112 390.201 238.32 391.241 237.76C392.297 237.184 393.473 236.896 394.769 236.896C396.033 236.896 397.177 237.168 398.201 237.712C399.225 238.256 400.025 239.04 400.601 240.064C401.193 241.072 401.489 242.248 401.489 243.592ZM394.793 239.728C393.945 239.728 393.233 239.968 392.657 240.448C392.081 240.928 391.729 241.584 391.601 242.416H397.961C397.833 241.6 397.481 240.952 396.905 240.472C396.329 239.976 395.625 239.728 394.793 239.728ZM415.13 236.32V240.76H422.906V243.88H415.13V250H411.242V233.2H423.938V236.32H415.13ZM432.222 250.192C430.862 250.192 429.638 249.912 428.55 249.352C427.478 248.776 426.638 247.984 426.03 246.976C425.422 245.968 425.118 244.824 425.118 243.544C425.118 242.264 425.422 241.12 426.03 240.112C426.638 239.104 427.478 238.32 428.55 237.76C429.638 237.184 430.862 236.896 432.222 236.896C433.582 236.896 434.798 237.184 435.87 237.76C436.942 238.32 437.782 239.104 438.39 240.112C438.998 241.12 439.302 242.264 439.302 243.544C439.302 244.824 438.998 245.968 438.39 246.976C437.782 247.984 436.942 248.776 435.87 249.352C434.798 249.912 433.582 250.192 432.222 250.192ZM432.222 247.12C433.182 247.12 433.966 246.8 434.574 246.16C435.198 245.504 435.51 244.632 435.51 243.544C435.51 242.456 435.198 241.592 434.574 240.952C433.966 240.296 433.182 239.968 432.222 239.968C431.262 239.968 430.47 240.296 429.846 240.952C429.222 241.592 428.91 242.456 428.91 243.544C428.91 244.632 429.222 245.504 429.846 246.16C430.47 246.8 431.262 247.12 432.222 247.12ZM445.481 238.792C445.929 238.168 446.529 237.696 447.281 237.376C448.049 237.056 448.929 236.896 449.921 236.896V240.352C449.505 240.32 449.225 240.304 449.081 240.304C448.009 240.304 447.169 240.608 446.561 241.216C445.953 241.808 445.649 242.704 445.649 243.904V250H441.905V237.088H445.481V238.792ZM459.501 233.2H463.389V246.832H471.813V250H459.501V233.2ZM479.17 236.896C481.17 236.896 482.706 237.376 483.778 238.336C484.85 239.28 485.386 240.712 485.386 242.632V250H481.882V248.392C481.178 249.592 479.866 250.192 477.946 250.192C476.954 250.192 476.09 250.024 475.354 249.688C474.634 249.352 474.082 248.888 473.698 248.296C473.314 247.704 473.122 247.032 473.122 246.28C473.122 245.08 473.57 244.136 474.466 243.448C475.378 242.76 476.778 242.416 478.666 242.416H481.642C481.642 241.6 481.394 240.976 480.898 240.544C480.402 240.096 479.658 239.872 478.666 239.872C477.978 239.872 477.298 239.984 476.626 240.208C475.97 240.416 475.41 240.704 474.946 241.072L473.602 238.456C474.306 237.96 475.146 237.576 476.122 237.304C477.114 237.032 478.13 236.896 479.17 236.896ZM478.882 247.672C479.522 247.672 480.09 247.528 480.586 247.24C481.082 246.936 481.434 246.496 481.642 245.92V244.6H479.074C477.538 244.6 476.77 245.104 476.77 246.112C476.77 246.592 476.954 246.976 477.322 247.264C477.706 247.536 478.226 247.672 478.882 247.672ZM497.203 249.376C496.835 249.648 496.379 249.856 495.835 250C495.307 250.128 494.747 250.192 494.155 250.192C492.619 250.192 491.427 249.8 490.579 249.016C489.747 248.232 489.331 247.08 489.331 245.56V240.256H487.339V237.376H489.331V234.232H493.075V237.376H496.291V240.256H493.075V245.512C493.075 246.056 493.211 246.48 493.483 246.784C493.771 247.072 494.171 247.216 494.683 247.216C495.275 247.216 495.779 247.056 496.195 246.736L497.203 249.376ZM511.654 243.592C511.654 243.64 511.63 243.976 511.582 244.6H501.814C501.99 245.4 502.406 246.032 503.062 246.496C503.718 246.96 504.534 247.192 505.51 247.192C506.182 247.192 506.774 247.096 507.286 246.904C507.814 246.696 508.302 246.376 508.75 245.944L510.742 248.104C509.526 249.496 507.75 250.192 505.414 250.192C503.958 250.192 502.67 249.912 501.55 249.352C500.43 248.776 499.566 247.984 498.958 246.976C498.35 245.968 498.046 244.824 498.046 243.544C498.046 242.28 498.342 241.144 498.934 240.136C499.542 239.112 500.366 238.32 501.406 237.76C502.462 237.184 503.638 236.896 504.934 236.896C506.198 236.896 507.342 237.168 508.366 237.712C509.39 238.256 510.19 239.04 510.766 240.064C511.358 241.072 511.654 242.248 511.654 243.592ZM504.958 239.728C504.11 239.728 503.398 239.968 502.822 240.448C502.246 240.928 501.894 241.584 501.766 242.416H508.126C507.998 241.6 507.646 240.952 507.07 240.472C506.494 239.976 505.79 239.728 504.958 239.728ZM518.591 250.192C517.519 250.192 516.471 250.064 515.447 249.808C514.423 249.536 513.607 249.2 512.999 248.8L514.247 246.112C514.823 246.48 515.519 246.784 516.335 247.024C517.151 247.248 517.951 247.36 518.735 247.36C520.319 247.36 521.111 246.968 521.111 246.184C521.111 245.816 520.895 245.552 520.463 245.392C520.031 245.232 519.367 245.096 518.471 244.984C517.415 244.824 516.543 244.64 515.855 244.432C515.167 244.224 514.567 243.856 514.055 243.328C513.559 242.8 513.311 242.048 513.311 241.072C513.311 240.256 513.543 239.536 514.007 238.912C514.487 238.272 515.175 237.776 516.071 237.424C516.983 237.072 518.055 236.896 519.287 236.896C520.199 236.896 521.103 237 521.999 237.208C522.911 237.4 523.663 237.672 524.255 238.024L523.007 240.688C521.871 240.048 520.631 239.728 519.287 239.728C518.487 239.728 517.887 239.84 517.487 240.064C517.087 240.288 516.887 240.576 516.887 240.928C516.887 241.328 517.103 241.608 517.535 241.768C517.967 241.928 518.655 242.08 519.599 242.224C520.655 242.4 521.519 242.592 522.191 242.8C522.863 242.992 523.447 243.352 523.943 243.88C524.439 244.408 524.687 245.144 524.687 246.088C524.687 246.888 524.447 247.6 523.967 248.224C523.487 248.848 522.783 249.336 521.855 249.688C520.943 250.024 519.855 250.192 518.591 250.192ZM535.425 249.376C535.057 249.648 534.601 249.856 534.057 250C533.529 250.128 532.969 250.192 532.377 250.192C530.841 250.192 529.649 249.8 528.801 249.016C527.969 248.232 527.553 247.08 527.553 245.56V240.256H525.561V237.376H527.553V234.232H531.297V237.376H534.513V240.256H531.297V245.512C531.297 246.056 531.433 246.48 531.705 246.784C531.993 247.072 532.393 247.216 532.905 247.216C533.497 247.216 534.001 247.056 534.417 246.736L535.425 249.376ZM294.4 265.2V282H291.208L282.832 271.8V282H278.992V265.2H282.208L290.56 275.4V265.2H294.4ZM310.859 275.592C310.859 275.64 310.835 275.976 310.787 276.6H301.019C301.195 277.4 301.611 278.032 302.267 278.496C302.923 278.96 303.739 279.192 304.715 279.192C305.387 279.192 305.979 279.096 306.491 278.904C307.019 278.696 307.507 278.376 307.955 277.944L309.947 280.104C308.731 281.496 306.955 282.192 304.619 282.192C303.163 282.192 301.875 281.912 300.755 281.352C299.635 280.776 298.771 279.984 298.163 278.976C297.555 277.968 297.251 276.824 297.251 275.544C297.251 274.28 297.547 273.144 298.139 272.136C298.747 271.112 299.571 270.32 300.611 269.76C301.667 269.184 302.843 268.896 304.139 268.896C305.403 268.896 306.547 269.168 307.571 269.712C308.595 270.256 309.395 271.04 309.971 272.064C310.563 273.072 310.859 274.248 310.859 275.592ZM304.163 271.728C303.315 271.728 302.603 271.968 302.027 272.448C301.451 272.928 301.099 273.584 300.971 274.416H307.331C307.203 273.6 306.851 272.952 306.275 272.472C305.699 271.976 304.995 271.728 304.163 271.728ZM333.953 269.088L329.273 282H325.673L322.769 273.984L319.769 282H316.169L311.513 269.088H315.041L318.089 277.824L321.257 269.088H324.425L327.497 277.824L330.641 269.088H333.953ZM339.95 282.192C338.878 282.192 337.83 282.064 336.806 281.808C335.782 281.536 334.966 281.2 334.358 280.8L335.606 278.112C336.182 278.48 336.878 278.784 337.694 279.024C338.51 279.248 339.31 279.36 340.094 279.36C341.678 279.36 342.47 278.968 342.47 278.184C342.47 277.816 342.254 277.552 341.822 277.392C341.39 277.232 340.726 277.096 339.83 276.984C338.774 276.824 337.902 276.64 337.214 276.432C336.526 276.224 335.926 275.856 335.414 275.328C334.918 274.8 334.67 274.048 334.67 273.072C334.67 272.256 334.902 271.536 335.366 270.912C335.846 270.272 336.534 269.776 337.43 269.424C338.342 269.072 339.414 268.896 340.646 268.896C341.558 268.896 342.462 269 343.358 269.208C344.27 269.4 345.022 269.672 345.614 270.024L344.366 272.688C343.23 272.048 341.99 271.728 340.646 271.728C339.846 271.728 339.246 271.84 338.846 272.064C338.446 272.288 338.246 272.576 338.246 272.928C338.246 273.328 338.462 273.608 338.894 273.768C339.326 273.928 340.014 274.08 340.958 274.224C342.014 274.4 342.878 274.592 343.55 274.8C344.222 274.992 344.806 275.352 345.302 275.88C345.798 276.408 346.046 277.144 346.046 278.088C346.046 278.888 345.806 279.6 345.326 280.224C344.846 280.848 344.142 281.336 343.214 281.688C342.302 282.024 341.214 282.192 339.95 282.192ZM348.456 264.192H352.2V282H348.456V264.192ZM368.423 275.592C368.423 275.64 368.399 275.976 368.351 276.6H358.583C358.759 277.4 359.175 278.032 359.831 278.496C360.487 278.96 361.303 279.192 362.279 279.192C362.951 279.192 363.543 279.096 364.055 278.904C364.583 278.696 365.071 278.376 365.519 277.944L367.511 280.104C366.295 281.496 364.519 282.192 362.183 282.192C360.727 282.192 359.439 281.912 358.319 281.352C357.199 280.776 356.335 279.984 355.727 278.976C355.119 277.968 354.815 276.824 354.815 275.544C354.815 274.28 355.111 273.144 355.703 272.136C356.311 271.112 357.135 270.32 358.175 269.76C359.231 269.184 360.407 268.896 361.703 268.896C362.967 268.896 364.111 269.168 365.135 269.712C366.159 270.256 366.959 271.04 367.535 272.064C368.127 273.072 368.423 274.248 368.423 275.592ZM361.727 271.728C360.879 271.728 360.167 271.968 359.591 272.448C359.015 272.928 358.663 273.584 358.535 274.416H364.895C364.767 273.6 364.415 272.952 363.839 272.472C363.263 271.976 362.559 271.728 361.727 271.728ZM379.343 281.376C378.975 281.648 378.519 281.856 377.975 282C377.447 282.128 376.887 282.192 376.295 282.192C374.759 282.192 373.567 281.8 372.719 281.016C371.887 280.232 371.471 279.08 371.471 277.56V272.256H369.479V269.376H371.471V266.232H375.215V269.376H378.431V272.256H375.215V277.512C375.215 278.056 375.351 278.48 375.623 278.784C375.911 279.072 376.311 279.216 376.823 279.216C377.415 279.216 377.919 279.056 378.335 278.736L379.343 281.376ZM389.592 281.376C389.224 281.648 388.768 281.856 388.224 282C387.696 282.128 387.136 282.192 386.544 282.192C385.008 282.192 383.816 281.8 382.968 281.016C382.136 280.232 381.72 279.08 381.72 277.56V272.256H379.728V269.376H381.72V266.232H385.464V269.376H388.68V272.256H385.464V277.512C385.464 278.056 385.6 278.48 385.872 278.784C386.16 279.072 386.56 279.216 387.072 279.216C387.664 279.216 388.168 279.056 388.584 278.736L389.592 281.376ZM404.043 275.592C404.043 275.64 404.019 275.976 403.971 276.6H394.203C394.379 277.4 394.795 278.032 395.451 278.496C396.107 278.96 396.923 279.192 397.899 279.192C398.571 279.192 399.163 279.096 399.675 278.904C400.203 278.696 400.691 278.376 401.139 277.944L403.131 280.104C401.915 281.496 400.139 282.192 397.803 282.192C396.347 282.192 395.059 281.912 393.939 281.352C392.819 280.776 391.955 279.984 391.347 278.976C390.739 277.968 390.435 276.824 390.435 275.544C390.435 274.28 390.731 273.144 391.323 272.136C391.931 271.112 392.755 270.32 393.795 269.76C394.851 269.184 396.027 268.896 397.323 268.896C398.587 268.896 399.731 269.168 400.755 269.712C401.779 270.256 402.579 271.04 403.155 272.064C403.747 273.072 404.043 274.248 404.043 275.592ZM397.347 271.728C396.499 271.728 395.787 271.968 395.211 272.448C394.635 272.928 394.283 273.584 394.155 274.416H400.515C400.387 273.6 400.035 272.952 399.459 272.472C398.883 271.976 398.179 271.728 397.347 271.728ZM410.212 270.792C410.66 270.168 411.26 269.696 412.012 269.376C412.78 269.056 413.66 268.896 414.652 268.896V272.352C414.236 272.32 413.956 272.304 413.812 272.304C412.74 272.304 411.9 272.608 411.292 273.216C410.684 273.808 410.38 274.704 410.38 275.904V282H406.636V269.088H410.212V270.792Z" fill="white"/>
<rect x="723.5" y="228.5" width="449" height="57" rx="4.5" fill="#F9F9F9"/>
<path d="M747.956 258.612V262H746.934V258.612L743.014 252.2H744.12L747.48 257.702L750.84 252.2H751.876L747.956 258.612ZM755.649 262.07C754.939 262.07 754.3 261.911 753.731 261.594C753.161 261.267 752.713 260.819 752.387 260.25C752.06 259.681 751.897 259.037 751.897 258.318C751.897 257.599 752.06 256.955 752.387 256.386C752.713 255.817 753.161 255.373 753.731 255.056C754.3 254.739 754.939 254.58 755.649 254.58C756.358 254.58 756.997 254.739 757.567 255.056C758.136 255.373 758.579 255.817 758.897 256.386C759.223 256.955 759.387 257.599 759.387 258.318C759.387 259.037 759.223 259.681 758.897 260.25C758.579 260.819 758.136 261.267 757.567 261.594C756.997 261.911 756.358 262.07 755.649 262.07ZM755.649 261.188C756.171 261.188 756.638 261.071 757.049 260.838C757.469 260.595 757.795 260.255 758.029 259.816C758.262 259.377 758.379 258.878 758.379 258.318C758.379 257.758 758.262 257.259 758.029 256.82C757.795 256.381 757.469 256.045 757.049 255.812C756.638 255.569 756.171 255.448 755.649 255.448C755.126 255.448 754.655 255.569 754.235 255.812C753.824 256.045 753.497 256.381 753.255 256.82C753.021 257.259 752.905 257.758 752.905 258.318C752.905 258.878 753.021 259.377 753.255 259.816C753.497 260.255 753.824 260.595 754.235 260.838C754.655 261.071 755.126 261.188 755.649 261.188ZM768.252 254.636V262H767.3V260.656C767.039 261.104 766.679 261.454 766.222 261.706C765.765 261.949 765.242 262.07 764.654 262.07C763.693 262.07 762.932 261.804 762.372 261.272C761.821 260.731 761.546 259.942 761.546 258.906V254.636H762.54V258.808C762.54 259.583 762.731 260.171 763.114 260.572C763.497 260.973 764.043 261.174 764.752 261.174C765.527 261.174 766.138 260.941 766.586 260.474C767.034 259.998 767.258 259.34 767.258 258.5V254.636H768.252ZM772.188 256.078C772.421 255.583 772.767 255.21 773.224 254.958C773.691 254.706 774.265 254.58 774.946 254.58V255.546L774.708 255.532C773.933 255.532 773.327 255.77 772.888 256.246C772.449 256.722 772.23 257.389 772.23 258.248V262H771.236V254.636H772.188V256.078ZM788.059 261.104V262H781.129V252.2H787.849V253.096H782.165V256.582H787.233V257.464H782.165V261.104H788.059ZM799.668 254.58C800.592 254.58 801.316 254.846 801.838 255.378C802.37 255.91 802.636 256.694 802.636 257.73V262H801.642V257.828C801.642 257.063 801.456 256.479 801.082 256.078C800.718 255.677 800.2 255.476 799.528 255.476C798.763 255.476 798.161 255.714 797.722 256.19C797.284 256.657 797.064 257.305 797.064 258.136V262H796.07V257.828C796.07 257.063 795.884 256.479 795.51 256.078C795.146 255.677 794.624 255.476 793.942 255.476C793.186 255.476 792.584 255.714 792.136 256.19C791.698 256.657 791.478 257.305 791.478 258.136V262H790.484V254.636H791.436V255.98C791.698 255.532 792.062 255.187 792.528 254.944C792.995 254.701 793.532 254.58 794.138 254.58C794.754 254.58 795.286 254.711 795.734 254.972C796.192 255.233 796.532 255.621 796.756 256.134C797.027 255.649 797.414 255.271 797.918 255C798.432 254.72 799.015 254.58 799.668 254.58ZM808.108 254.58C809.069 254.58 809.807 254.823 810.32 255.308C810.833 255.784 811.09 256.493 811.09 257.436V262H810.138V260.852C809.914 261.235 809.583 261.533 809.144 261.748C808.715 261.963 808.201 262.07 807.604 262.07C806.783 262.07 806.129 261.874 805.644 261.482C805.159 261.09 804.916 260.572 804.916 259.928C804.916 259.303 805.14 258.799 805.588 258.416C806.045 258.033 806.769 257.842 807.758 257.842H810.096V257.394C810.096 256.759 809.919 256.279 809.564 255.952C809.209 255.616 808.691 255.448 808.01 255.448C807.543 255.448 807.095 255.527 806.666 255.686C806.237 255.835 805.868 256.045 805.56 256.316L805.112 255.574C805.485 255.257 805.933 255.014 806.456 254.846C806.979 254.669 807.529 254.58 808.108 254.58ZM807.758 261.286C808.318 261.286 808.799 261.16 809.2 260.908C809.601 260.647 809.9 260.273 810.096 259.788V258.584H807.786C806.526 258.584 805.896 259.023 805.896 259.9C805.896 260.329 806.059 260.67 806.386 260.922C806.713 261.165 807.17 261.286 807.758 261.286ZM813.99 254.636H814.984V262H813.99V254.636ZM814.494 253.026C814.289 253.026 814.116 252.956 813.976 252.816C813.836 252.676 813.766 252.508 813.766 252.312C813.766 252.125 813.836 251.962 813.976 251.822C814.116 251.682 814.289 251.612 814.494 251.612C814.699 251.612 814.872 251.682 815.012 251.822C815.152 251.953 815.222 252.111 815.222 252.298C815.222 252.503 815.152 252.676 815.012 252.816C814.872 252.956 814.699 253.026 814.494 253.026ZM817.95 251.612H818.944V262H817.95V251.612Z" fill="#737373"/>
<rect x="723.5" y="228.5" width="449" height="57" rx="4.5" stroke="#E6E6E6"/>
<path d="M1056.5 228.5H1168C1170.49 228.5 1172.5 230.515 1172.5 233V281C1172.5 283.485 1170.49 285.5 1168 285.5H1056.5V228.5Z" fill="#FF7B47"/>
<path d="M1083.26 262.084C1085.77 262.084 1086.92 260.852 1086.92 259.41C1086.92 255.84 1080.88 257.464 1080.88 254.776C1080.88 253.796 1081.68 252.998 1083.47 252.998C1084.34 252.998 1085.32 253.264 1086.16 253.81L1086.51 252.984C1085.73 252.438 1084.58 252.116 1083.47 252.116C1080.98 252.116 1079.86 253.362 1079.86 254.804C1079.86 258.43 1085.9 256.778 1085.9 259.466C1085.9 260.432 1085.1 261.202 1083.26 261.202C1081.98 261.202 1080.73 260.698 1080.03 260.012L1079.62 260.81C1080.35 261.566 1081.79 262.084 1083.26 262.084ZM1094.81 254.636V258.5C1094.81 260.18 1093.84 261.174 1092.3 261.174C1090.9 261.174 1090.09 260.376 1090.09 258.808V254.636H1089.1V258.906C1089.1 261.02 1090.33 262.07 1092.2 262.07C1093.38 262.07 1094.33 261.552 1094.85 260.656V262H1095.8V254.636H1094.81ZM1102.58 254.58C1101.4 254.58 1100.4 255.084 1099.78 256.036V251.612H1098.79V262H1099.74V260.544C1100.34 261.538 1101.36 262.07 1102.58 262.07C1104.68 262.07 1106.25 260.544 1106.25 258.318C1106.25 256.092 1104.68 254.58 1102.58 254.58ZM1102.51 261.188C1100.94 261.188 1099.77 260.04 1099.77 258.318C1099.77 256.596 1100.94 255.448 1102.51 255.448C1104.06 255.448 1105.25 256.596 1105.25 258.318C1105.25 260.04 1104.06 261.188 1102.51 261.188ZM1110.45 262.07C1112.37 262.07 1113.49 261.244 1113.49 259.97C1113.49 257.142 1108.71 258.64 1108.71 256.652C1108.71 255.952 1109.3 255.434 1110.63 255.434C1111.39 255.434 1112.16 255.616 1112.8 256.064L1113.23 255.266C1112.62 254.846 1111.58 254.58 1110.63 254.58C1108.75 254.58 1107.72 255.476 1107.72 256.68C1107.72 259.592 1112.49 258.08 1112.49 259.998C1112.49 260.726 1111.92 261.202 1110.52 261.202C1109.48 261.202 1108.49 260.838 1107.9 260.376L1107.45 261.16C1108.05 261.678 1109.23 262.07 1110.45 262.07ZM1118.58 262.07C1119.82 262.07 1120.87 261.566 1121.46 260.614L1120.72 260.11C1120.21 260.852 1119.43 261.188 1118.58 261.188C1116.97 261.188 1115.79 260.054 1115.79 258.318C1115.79 256.596 1116.97 255.448 1118.58 255.448C1119.43 255.448 1120.21 255.798 1120.72 256.54L1121.46 256.036C1120.87 255.07 1119.82 254.58 1118.58 254.58C1116.38 254.58 1114.78 256.12 1114.78 258.318C1114.78 260.516 1116.38 262.07 1118.58 262.07ZM1124.56 256.078V254.636H1123.61V262H1124.61V258.248C1124.61 256.512 1125.54 255.532 1127.08 255.532C1127.15 255.532 1127.24 255.546 1127.32 255.546V254.58C1125.96 254.58 1125.03 255.098 1124.56 256.078ZM1129.83 253.026C1130.25 253.026 1130.55 252.704 1130.55 252.298C1130.55 251.92 1130.23 251.612 1129.83 251.612C1129.42 251.612 1129.1 251.934 1129.1 252.312C1129.1 252.704 1129.42 253.026 1129.83 253.026ZM1129.32 262H1130.32V254.636H1129.32V262ZM1137.08 254.58C1135.9 254.58 1134.89 255.084 1134.28 256.036V251.612H1133.28V262H1134.23V260.544C1134.84 261.538 1135.86 262.07 1137.08 262.07C1139.18 262.07 1140.74 260.544 1140.74 258.318C1140.74 256.092 1139.18 254.58 1137.08 254.58ZM1137.01 261.188C1135.44 261.188 1134.26 260.04 1134.26 258.318C1134.26 256.596 1135.44 255.448 1137.01 255.448C1138.56 255.448 1139.75 256.596 1139.75 258.318C1139.75 260.04 1138.56 261.188 1137.01 261.188ZM1149.4 258.318C1149.4 256.106 1147.9 254.58 1145.83 254.58C1143.75 254.58 1142.23 256.134 1142.23 258.318C1142.23 260.502 1143.8 262.07 1146.09 262.07C1147.25 262.07 1148.28 261.65 1148.93 260.866L1148.37 260.222C1147.81 260.866 1147.02 261.188 1146.12 261.188C1144.51 261.188 1143.33 260.166 1143.22 258.626H1149.38C1149.38 258.514 1149.4 258.402 1149.4 258.318ZM1145.83 255.434C1147.27 255.434 1148.32 256.442 1148.44 257.884H1143.22C1143.35 256.442 1144.4 255.434 1145.83 255.434Z" fill="white"/>
<path d="M1056.5 228.5H1168C1170.49 228.5 1172.5 230.515 1172.5 233V281C1172.5 283.485 1170.49 285.5 1168 285.5H1056.5V228.5Z" stroke="#E6E6E6"/>
<defs>
<clipPath id="clip0_964_17548">
<rect width="1050" height="175" fill="white" transform="translate(195)"/>
</clipPath>
<clipPath id="clip1_964_17548">
<rect width="153" height="34" fill="white" transform="translate(195 70.5)"/>
</clipPath>
<clipPath id="clip2_964_17548">
<rect width="103" height="34" fill="white" transform="translate(220 70.5)"/>
</clipPath>
<clipPath id="clip3_964_17548">
<rect width="83" height="59" fill="white" transform="translate(409.5 58)"/>
</clipPath>
<clipPath id="clip4_964_17548">
<rect width="151" height="42" fill="white" transform="translate(736 66.5)"/>
</clipPath>
<clipPath id="clip5_964_17548">
<rect width="103" height="42" fill="white" transform="translate(760 66.5)"/>
</clipPath>
<clipPath id="clip6_964_17548">
<rect width="151" height="62" fill="white" transform="translate(917 56.5)"/>
</clipPath>
<clipPath id="clip7_964_17548">
<rect width="104" height="62" fill="white" transform="translate(940.5 56.5)"/>
</clipPath>
<clipPath id="clip8_964_17548">
<rect width="151" height="72" fill="white" transform="translate(1098 51.5)"/>
</clipPath>
<clipPath id="clip9_964_17548">
<rect width="76" height="72" fill="white" transform="translate(1135.5 51.5)"/>
</clipPath>
</defs>
</svg>
